# xmcd
# 
# Track frame offsets:
#     150
#     17786
#     34859
#     52271
#     66027
#     84065
#     101214
#     125367
#     142501
#     161842
#     179950
#     191081
# 
# Disc length: 2695
# 
# Revision: 2
# Processed by: cddbd v1.5.2PL0 Copyright (c) Steve Scherf et al.
# Submitted via: fre:ac v1.0.27
# 
DISCID=a70a850c
DTITLE=Various Artist - Rec 31
DYEAR=0
DGENRE=Top 40
TTITLE0=2 Belgen - Operation Coup De Poing
TTITLE1=Frank Boeijen - Koud In Mijn Hart
TTITLE2=U2 - Pride (In The Name Of Love)
TTITLE3=Hadise - Düm Tek Tek
TTITLE4=Maywood - Give Me Back My Love
TTITLE5=Jürgen Marcus - Eine Neue Liebe Ist Wie Ein Neues Leben
TTITLE6=Stacy Lattisaw - Jump To The Beat
TTITLE7=Swing Out Sister - Breakout
TTITLE8=Robbie Williams - Supreme (Frans)
TTITLE9=Robert Palmer - Best Of Both Worlds
TTITLE10=Brendan Bowyer and The Royal Showband - The Hucklebuck
TTITLE11=Chubby Checker - The Hucklebuck
EXTD=
EXTT0=
EXTT1=
EXTT2=
EXTT3=
EXTT4=
EXTT5=
EXTT6=
EXTT7=
EXTT8=
EXTT9=
EXTT10=
EXTT11=
PLAYORDER=
